<?xml version="1.0" ?><svg id="outine" viewBox="0 0 48 48" xmlns="http://www.w3.org/2000/svg"><title/><path d="M27.637.75a3.89,3.89,0,0,1,1,1.262" style="fill:none;stroke:#000;stroke-linecap:round;stroke-linejoin:round;stroke-width:1.5px;fill-rule:evenodd"/><path d="M42.111,16.876H5.889a.75.75,0,0,0-.75.75V19.2a.747.747,0,0,0,.485.7l3.7,1.4v1.423a.75.75,0,0,0,1.5,0v-4.35H37.176V31.847a3.441,3.441,0,0,1-3.437,3.437H14.261a3.441,3.441,0,0,1-3.437-3.437V25.274a.75.75,0,0,0-1.5,0v6.573a4.943,4.943,0,0,0,4.937,4.937h.789v1.687H5.889a.75.75,0,0,0-.75.75V47.25a.75.75,0,0,0,1.5,0V39.971h30.54a.75.75,0,0,0,0-1.5h-4.2V36.784h.761a4.943,4.943,0,0,0,4.937-4.937V21.3l3.7-1.4a.747.747,0,0,0,.485-.7V17.626A.75.75,0,0,0,42.111,16.876ZM6.639,18.687v-.311H9.324V19.7ZM31.478,38.471H16.55V36.784H31.478Zm9.883-19.784L38.676,19.7V18.376h2.685Z"/><path d="M42.111,38.471h-2.68a.75.75,0,0,0,0,1.5h1.93V47.25a.75.75,0,0,0,1.5,0V39.221A.75.75,0,0,0,42.111,38.471Z"/><path d="M18.925,11.158a.75.75,0,0,0-.532.917A7.52,7.52,0,0,0,19.8,14.936.75.75,0,0,0,20.855,15a.752.752,0,0,0,.073-1.057,6.152,6.152,0,0,1-1.086-2.256A.75.75,0,0,0,18.925,11.158Z"/><path d="M18.1,9.786a.75.75,0,1,0,1.5,0,6.415,6.415,0,0,1,.747-2.747,6.719,6.719,0,0,0,.769-2.815A5.169,5.169,0,0,0,19.293.147a.75.75,0,0,0-.9,1.2,3.678,3.678,0,0,1,1.218,2.875,5.4,5.4,0,0,1-.64,2.205A7.832,7.832,0,0,0,18.1,9.786Z"/><path d="M22.492,9.786a8.144,8.144,0,0,0,1.7,5.15A.75.75,0,0,0,25.25,15a.752.752,0,0,0,.073-1.058,6.768,6.768,0,0,1-1.331-4.159,6.415,6.415,0,0,1,.747-2.747,6.719,6.719,0,0,0,.769-2.815A5.169,5.169,0,0,0,23.688.147a.75.75,0,0,0-.9,1.2,3.678,3.678,0,0,1,1.218,2.875,5.4,5.4,0,0,1-.64,2.205A7.846,7.846,0,0,0,22.492,9.786Z"/><path d="M29.151,15.188a.75.75,0,0,0,.567-1.243,6.768,6.768,0,0,1-1.331-4.159,6.43,6.43,0,0,1,.747-2.747A6.719,6.719,0,0,0,29.9,4.224a.75.75,0,1,0-1.5,0,5.4,5.4,0,0,1-.64,2.205,7.846,7.846,0,0,0-.876,3.357,8.144,8.144,0,0,0,1.7,5.15A.743.743,0,0,0,29.151,15.188Z"/><path d="M34.11,41.191a2.633,2.633,0,1,0,2.633,2.633A2.636,2.636,0,0,0,34.11,41.191Zm0,3.765a1.133,1.133,0,1,1,1.133-1.132A1.134,1.134,0,0,1,34.11,44.956Z"/><path d="M24.014,41.191a2.633,2.633,0,1,0,2.632,2.633A2.636,2.636,0,0,0,24.014,41.191Zm0,3.765a1.133,1.133,0,1,1,1.132-1.132A1.134,1.134,0,0,1,24.014,44.956Z"/><path d="M13.917,41.191a2.633,2.633,0,1,0,2.633,2.633A2.635,2.635,0,0,0,13.917,41.191Zm0,3.765a1.133,1.133,0,1,1,1.133-1.132A1.133,1.133,0,0,1,13.917,44.956Z"/></svg>